<svg id="Ebene_1" data-name="Ebene 1" xmlns="http://www.w3.org/2000/svg" viewBox="0 0 434.05 395.29"><defs><style>.cls-1{fill:#dddedc;}.cls-2{fill:#a2a5a4;}</style></defs><polygon class="cls-1" points="408.26 98.76 408.26 181.97 276.7 100.63 276.7 85.21 293.08 56.85 194.6 0 41.97 0 0 34.12 0.22 34.4 0 34.4 0 157.6 24.64 157.6 24.64 177.11 0 177.11 0 237.18 24.64 237.18 24.64 256.68 0 256.68 0 361.41 0.3 361.41 41.97 395.29 42.13 395.08 194.6 395.08 252.92 361.41 276.7 361.41 276.7 286.97 408.26 205.63 408.26 285.98 434.05 273.65 434.05 195.78 434.05 111.08 408.26 98.76"/><rect class="cls-2" x="166.31" y="60.06" width="95.51" height="64.17"/><rect class="cls-2" x="70.8" y="156.06" width="34.75" height="107.92"/><polygon class="cls-2" points="143.05 48.85 68.05 5.55 68.05 92.15 86.47 81.51 101.94 108.3 140.09 86.27 124.63 59.48 143.05 48.85"/><polygon class="cls-2" points="140.93 342.21 65.93 385.51 65.93 298.91 84.36 309.55 99.82 282.77 137.97 304.79 122.51 331.58 140.93 342.21"/><polygon class="cls-2" points="394.08 190.66 322.32 149 322.35 134.93 270.69 134.81 270.42 247.28 322.08 247.4 322.12 231.98 394.08 190.66"/></svg>