<svg xmlns="http://www.w3.org/2000/svg" viewBox="0 0 1203.38 1015.31"><defs><style>.cls-1{fill:none;stroke:#2da2cd;stroke-miterlimit:10;stroke-width:2px;stroke-dasharray:10 5;}.cls-2{fill:#252525;}</style></defs><g id="new_map"><path id="area_3" data-name="area 3" class="cls-1" d="M556,319l-42.11,75-.08,194.58,43.29,82.74L858.41,496.55Z"/><path id="area_1" data-name="area 1" class="cls-1" d="M64.26,76.75l85.49-50.21L574,271,507.7,387l-302-.25-.11-10.69H64.26Z"/><path id="area_2" data-name="area 2" class="cls-1" d="M63.91,908.63l63.82,37.74,435.05-249.6L507.7,591.29l-302.37.24-.11,10.69H63.91Z"/><g id="area_labels" data-name="area labels"><g id="Gruppe_407" data-name="Gruppe 407"><path id="Pfad_419" data-name="Pfad 419" class="cls-2" d="M208.71,302.78l-1.55,4.67h-2l5-14.86h2.31l5.07,14.86h-2.05L214,302.78Zm4.87-1.5L212.13,297c-.34-1-.56-1.85-.78-2.71h0c-.22.88-.46,1.78-.75,2.69l-1.46,4.3Z"/><path id="Pfad_420" data-name="Pfad 420" class="cls-2" d="M220.24,292.79a19.81,19.81,0,0,1,3.68-.31c2.05,0,3.38.37,4.3,1.21a3.68,3.68,0,0,1,1.17,2.82,3.9,3.9,0,0,1-2.8,3.8v.06c1.15.4,1.83,1.46,2.19,3a24.09,24.09,0,0,0,1.14,4.09h-2a19,19,0,0,1-1-3.56c-.44-2-1.23-2.82-3-2.89h-1.81v6.45h-1.92Zm1.92,6.77h2c2,0,3.36-1.13,3.36-2.82,0-1.93-1.4-2.76-3.42-2.78a8.05,8.05,0,0,0-1.9.17Z"/><path id="Pfad_421" data-name="Pfad 421" class="cls-2" d="M240.24,300.48h-5.78v5.36h6.45v1.61h-8.36V292.59h8v1.61h-6.11v4.7h5.77Z"/><path id="Pfad_422" data-name="Pfad 422" class="cls-2" d="M246.24,302.78l-1.55,4.67h-2l5-14.86h2.31l5.08,14.86H253.1l-1.59-4.67Zm4.87-1.5L249.66,297c-.33-1-.55-1.85-.78-2.71h0c-.22.88-.46,1.78-.75,2.69l-1.46,4.3Z"/><path id="Pfad_423" data-name="Pfad 423" class="cls-2" d="M266.42,294.92h-.05l-2.49,1.35-.37-1.48,3.13-1.67h1.65v14.33h-1.87Z"/></g><g id="Gruppe_408" data-name="Gruppe 408"><path id="Pfad_424" data-name="Pfad 424" class="cls-2" d="M208.71,678.74l-1.55,4.68h-2l5-14.87h2.31l5.07,14.87h-2.05L214,678.74Zm4.87-1.5L212.13,673c-.34-1-.56-1.86-.78-2.72h0c-.22.89-.46,1.79-.75,2.7l-1.46,4.3Z"/><path id="Pfad_425" data-name="Pfad 425" class="cls-2" d="M220.24,668.75a20.7,20.7,0,0,1,3.68-.31c2.05,0,3.38.38,4.3,1.22a3.68,3.68,0,0,1,1.17,2.82,3.88,3.88,0,0,1-2.8,3.79v.07c1.15.4,1.83,1.46,2.19,3a24,24,0,0,0,1.14,4.08h-2a19.12,19.12,0,0,1-1-3.55c-.44-2-1.23-2.82-3-2.89h-1.81v6.44h-1.92Zm1.92,6.77h2c2,0,3.36-1.12,3.36-2.82,0-1.92-1.4-2.76-3.42-2.78a7.56,7.56,0,0,0-1.9.18Z"/><path id="Pfad_426" data-name="Pfad 426" class="cls-2" d="M240.24,676.45h-5.78v5.36h6.45v1.61h-8.36V668.55h8v1.61h-6.11v4.7h5.77Z"/><path id="Pfad_427" data-name="Pfad 427" class="cls-2" d="M246.24,678.74l-1.55,4.68h-2l5-14.87h2.31l5.08,14.87H253.1l-1.59-4.68Zm4.87-1.5L249.66,673c-.33-1-.55-1.86-.78-2.72h0c-.22.89-.46,1.79-.75,2.7l-1.46,4.3Z"/><path id="Pfad_428" data-name="Pfad 428" class="cls-2" d="M262.2,683.42v-1.19l1.53-1.48c3.66-3.48,5.31-5.34,5.33-7.5a2.54,2.54,0,0,0-2.28-2.8,2.62,2.62,0,0,0-.56,0,4.83,4.83,0,0,0-3,1.22l-.62-1.37a6.28,6.28,0,0,1,4.06-1.46A4,4,0,0,1,271,672.5a4.35,4.35,0,0,1,0,.51c0,2.65-1.92,4.79-4.94,7.7l-1.15,1.06v0h6.44v1.61Z"/></g><g id="Gruppe_409" data-name="Gruppe 409"><path id="Pfad_429" data-name="Pfad 429" class="cls-2" d="M550.22,484.67l-1.54,4.67h-2l5-14.87h2.32l5.07,14.87h-2l-1.59-4.67Zm4.88-1.5-1.46-4.28c-.33-1-.55-1.85-.77-2.71h0c-.22.88-.47,1.78-.75,2.69l-1.46,4.29Z"/><path id="Pfad_430" data-name="Pfad 430" class="cls-2" d="M561.75,474.67a20.73,20.73,0,0,1,3.69-.31c2,0,3.37.38,4.3,1.22a3.72,3.72,0,0,1,1.17,2.82,3.92,3.92,0,0,1-2.8,3.8v.06c1.15.4,1.83,1.46,2.18,3a24,24,0,0,0,1.15,4.08h-2a19.12,19.12,0,0,1-1-3.55c-.44-2.05-1.23-2.82-3-2.89h-1.8v6.44h-1.92Zm1.92,6.78h2c2.05,0,3.35-1.13,3.35-2.83,0-1.92-1.39-2.76-3.42-2.78a7.61,7.61,0,0,0-1.9.18Z"/><path id="Pfad_431" data-name="Pfad 431" class="cls-2" d="M581.76,482.37H576v5.36h6.44v1.61h-8.36V474.47h8v1.62H576v4.7h5.78Z"/><path id="Pfad_432" data-name="Pfad 432" class="cls-2" d="M587.75,484.67l-1.54,4.67h-2l5-14.87h2.32l5.07,14.87h-2L593,484.67Zm4.88-1.5-1.46-4.28c-.33-1-.55-1.85-.77-2.71h0c-.22.88-.46,1.78-.75,2.69l-1.46,4.29Z"/><path id="Pfad_433" data-name="Pfad 433" class="cls-2" d="M604.18,487.12a6.59,6.59,0,0,0,3.18.89c2.49,0,3.26-1.58,3.24-2.77,0-2-1.83-2.87-3.7-2.87h-1.08v-1.46h1.08c1.41,0,3.2-.73,3.2-2.42,0-1.15-.73-2.17-2.52-2.17a5.29,5.29,0,0,0-2.87.95l-.5-1.41a6.82,6.82,0,0,1,3.75-1.1c2.82,0,4.1,1.68,4.1,3.42a3.56,3.56,0,0,1-2.65,3.37v.05a3.73,3.73,0,0,1,3.2,3.68c0,2.3-1.79,4.3-5.23,4.3a7.29,7.29,0,0,1-3.73-1Z"/></g></g></g></svg>