<svg xmlns="http://www.w3.org/2000/svg" xmlns:xlink="http://www.w3.org/1999/xlink" width="20" height="20" viewBox="0 0 20 20"><defs><style>.a{fill:#fff;stroke:#707070;}.b{clip-path:url(#a);}.c,.d{fill:none;stroke:#42b0d5;stroke-linejoin:round;}.d{stroke-linecap:round;}</style><clipPath id="a"><rect class="a" width="20" height="20" transform="translate(602 877)"/></clipPath></defs><g class="b" transform="translate(-602 -877)"><g transform="translate(602.714 879.143)"><path class="c" d="M19.286,7.143H7.857A2.018,2.018,0,0,0,5.714,8.929L4.286,15.714v5a2.149,2.149,0,0,0,2.143,2.143H20.714a2.149,2.149,0,0,0,2.143-2.143v-5L21.429,8.929A2.012,2.012,0,0,0,19.286,7.143Z" transform="translate(-4.286 -7.143)"/><line class="d" x2="6.429" transform="translate(0 8.571)"/><line class="d" x2="6.429" transform="translate(12.143 8.571)"/><path class="d" d="M17.143,24.286a2.857,2.857,0,0,0,5.714,0" transform="translate(-10.714 -15.714)"/></g></g></svg>