<svg xmlns="http://www.w3.org/2000/svg" xmlns:xlink="http://www.w3.org/1999/xlink" width="20" height="20" viewBox="0 0 20 20"><defs><style>.a{fill:#fff;stroke:#707070;}.b{clip-path:url(#a);}.c{fill:none;stroke:#50b7db;stroke-linecap:round;stroke-linejoin:round;}</style><clipPath id="a"><rect class="a" width="20" height="20" transform="translate(731 738)"/></clipPath></defs><g class="b" transform="translate(-731 -738)"><g transform="translate(732.428 738.715)"><path class="c" d="M22.859,17.386V9.762a1.429,1.429,0,0,0-.709-1.233L15.363,4.579a2.14,2.14,0,0,0-2.154,0L6.424,8.529a1.429,1.429,0,0,0-.709,1.233v7.624a1.429,1.429,0,0,0,.709,1.234l6.786,3.949a2.143,2.143,0,0,0,2.154,0l6.786-3.949A1.429,1.429,0,0,0,22.859,17.386Z" transform="translate(-5.715 -4.289)"/><path class="c" d="M6.161,13.75l8.349,4.911,8.349-4.911" transform="translate(-5.938 -9.02)"/><line class="c" y1="8.929" transform="translate(8.572 9.642)"/></g></g></svg>