<svg xmlns="http://www.w3.org/2000/svg" xmlns:xlink="http://www.w3.org/1999/xlink" width="20" height="20" viewBox="0 0 20 20"><defs><style>.a{fill:#fff;stroke:#707070;}.b{clip-path:url(#a);}.c{fill:none;stroke:#50b7db;stroke-linecap:round;stroke-miterlimit:10;}</style><clipPath id="a"><rect class="a" width="20" height="20" transform="translate(911 618)"/></clipPath></defs><g class="b" transform="translate(-911 -618)"><g transform="translate(912.203 619.186)"><path class="c" d="M18.122,9.97a1.285,1.285,0,0,1-1.812,0L15.246,8.906a1.285,1.285,0,0,1,0-1.812l2.408-2.409a.04.04,0,0,0-.012-.066,4.53,4.53,0,0,0-4.85.944,4.644,4.644,0,0,0-.846,4.639,1.279,1.279,0,0,1-.363,1.285L4.913,17.578A1.929,1.929,0,1,0,7.636,20.3L13.8,13.614a1.279,1.279,0,0,1,1.265-.366,4.7,4.7,0,0,0,4.594-.849,4.622,4.622,0,0,0,.951-4.843.04.04,0,0,0-.064-.01Z" transform="translate(-4.263 -4.284)"/></g></g></svg>